<?xml version="1.0" encoding="utf-8"?>
<!-- Generator: Adobe Illustrator 25.2.0, SVG Export Plug-In . SVG Version: 6.00 Build 0)  -->
<svg version="1.1" id="Layer_1" xmlns="http://www.w3.org/2000/svg" xmlns:xlink="http://www.w3.org/1999/xlink" x="0px" y="0px"
	 viewBox="0 0 1001 1001" style="enable-background:new 0 0 1001 1001;" xml:space="preserve">
<style type="text/css">
	.st0{fill:url(#SVGID_1_);stroke:#1A1A1A;stroke-miterlimit:10;}
	.st1{fill:url(#SVGID_2_);stroke:#2C3E50;stroke-width:8.5;stroke-miterlimit:10;}
	.st2{fill:#169089;stroke:#2C3E50;stroke-width:8.5;stroke-miterlimit:10;}
	.st3{fill:url(#SVGID_3_);}
	.st4{fill:url(#SVGID_4_);stroke:#2C3E50;stroke-width:8.5;stroke-miterlimit:10;}
	.st5{fill:url(#SVGID_5_);stroke:#1A1A1A;stroke-miterlimit:10;}
	.st6{fill:url(#SVGID_6_);stroke:#2C3E50;stroke-width:5;stroke-miterlimit:10;}
	.st7{fill:#169089;stroke:#2C3E50;stroke-width:5;stroke-miterlimit:10;}
	.st8{fill:#FFFFFF;}
	.st9{fill:url(#SVGID_7_);stroke:#2C3E50;stroke-width:5;stroke-miterlimit:10;}
	.st10{fill:#2C3E50;}
	.st11{fill:url(#SVGID_8_);stroke:#1A1A1A;stroke-miterlimit:10;}
	.st12{fill:url(#SVGID_9_);stroke:#2C3E50;stroke-width:12;stroke-miterlimit:10;}
	.st13{fill:#169089;stroke:#2C3E50;stroke-width:12;stroke-miterlimit:10;}
	.st14{fill:url(#SVGID_10_);stroke:#2C3E50;stroke-width:12;stroke-miterlimit:10;}
	.st15{fill:url(#SVGID_11_);stroke:#2C3E50;stroke-width:8.5;stroke-miterlimit:10;}
	.st16{fill:url(#SVGID_12_);stroke:#2C3E50;stroke-width:8.5;stroke-miterlimit:10;}
	.st17{fill:url(#SVGID_13_);stroke:#2C3E50;stroke-width:12;stroke-miterlimit:10;}
	.st18{fill:url(#SVGID_14_);stroke:#2C3E50;stroke-width:5;stroke-miterlimit:10;}
	.st19{fill:#169089;}
</style>
<g>
	<g>
		
			<linearGradient id="SVGID_1_" gradientUnits="userSpaceOnUse" x1="217.1741" y1="1558.9741" x2="424.8269" y2="756.2349" gradientTransform="matrix(0.8807 -0.4736 0.4736 0.8807 -330.8335 -369.9242)">
			<stop  offset="0.1349" style="stop-color:#2C3E50"/>
			<stop  offset="0.1926" style="stop-color:#2B4352"/>
			<stop  offset="0.257" style="stop-color:#28505A"/>
			<stop  offset="0.3247" style="stop-color:#236666"/>
			<stop  offset="0.3942" style="stop-color:#1C8577"/>
			<stop  offset="0.4433" style="stop-color:#16A085"/>
			<stop  offset="0.471" style="stop-color:#17A78B"/>
			<stop  offset="0.5386" style="stop-color:#19B395"/>
			<stop  offset="0.6334" style="stop-color:#1ABA9A"/>
			<stop  offset="0.8936" style="stop-color:#1ABC9C"/>
		</linearGradient>
		<path style="fill:url(#SVGID_1_);stroke:#2C3E50;stroke-width:8.5;stroke-miterlimit:10;" d="M648.93,301.02
			c-77.53-63.84-184.43-80.1-273-32.49c-97.16,52.23-142.37,165.19-118.78,274.6c2.42,11.15,5.5,22.22,9.37,33.21
			c4.84,13.88,10.85,27.59,18.06,40.99c69.07,128.37,221.98,180.38,341.49,116.13s160.41-220.43,91.35-348.8l-0.21-0.39
			C699.34,351.21,675.91,323.22,648.93,301.02z M452.27,352.37c46.04-24.75,100.7-19.41,143.74,9.1c4.95,3.28,6.11,10.08,2.46,14.78
			c-24.43,31.46-54.53,60.88-89.81,86.34c-35.55,25.71-73.07,45.03-110.56,58.06c-5.7,1.98-11.88-1.42-13.27-7.29
			C369.77,449.41,395.6,382.83,452.27,352.37z M596.45,620.35c-53.28,28.64-118.15,16.98-163.15-24.26
			c-6.04-5.54-3.39-15.59,4.6-17.42c38.22-8.76,77.35-23.32,115.5-43.83c36.29-19.51,68.54-42.72,96.03-68.18
			c6.01-5.57,15.8-2.14,17,5.96C675.27,532.33,649.23,591.98,596.45,620.35z"/>
		<path class="st2" d="M431.45,594.02c-10.65-11.01-23.13-25.34-30.61-39.25c-6.55-12.18-11.47-24.8-14.83-37.77
			c-0.06-0.24-0.14-0.52-0.2-0.76"/>
		<path class="st2" d="M647.86,468.06c26.65-25.92,51.47-55.8,69.35-83.79"/>
		<path class="st2" d="M387.75,524.08c-0.05-0.01-0.08,0-0.11,0.02"/>
		<path class="st2" d="M699.02,410.61c0,0,13.06-18.48,24.36-15.38"/>
		<path class="st2" d="M702.87,404.83c0,0,11.56-15.35,9.17-29.5"/>
		<path class="st2" d="M392.29,536.09c0,0-1.23-12.17,5.81-15.45"/>
		<path class="st2" d="M416.6,578.48c0,0,8.57,4.56,24.09-0.72"/>
		<path class="st2" d="M666.31,470.51c0,0-1.24-19.4,7.14-27.63"/>
	</g>
</g>
</svg>
