<?xml version="1.0" encoding="utf-8"?>
<!-- Generator: Adobe Illustrator 25.2.0, SVG Export Plug-In . SVG Version: 6.00 Build 0)  -->
<svg version="1.1" id="Layer_1" xmlns="http://www.w3.org/2000/svg" xmlns:xlink="http://www.w3.org/1999/xlink" x="0px" y="0px"
	 viewBox="0 0 1000 1000" style="enable-background:new 0 0 1000 1000;" xml:space="preserve">
<style type="text/css">
	.st0{fill:url(#SVGID_1_);stroke:#1A1A1A;stroke-miterlimit:10;}
	.st1{fill:url(#SVGID_2_);stroke:#2C3E50;stroke-width:8.5;stroke-miterlimit:10;}
	.st2{fill:#169089;stroke:#2C3E50;stroke-width:8.5;stroke-miterlimit:10;}
	.st3{fill:url(#SVGID_3_);}
	.st4{fill:url(#SVGID_4_);stroke:#2C3E50;stroke-width:8.5;stroke-miterlimit:10;}
	.st5{fill:url(#SVGID_5_);stroke:#1A1A1A;stroke-miterlimit:10;}
	.st6{fill:url(#SVGID_6_);stroke:#2C3E50;stroke-width:5;stroke-miterlimit:10;}
	.st7{fill:#169089;stroke:#2C3E50;stroke-width:5;stroke-miterlimit:10;}
	.st8{fill:#FFFFFF;}
	.st9{fill:url(#SVGID_7_);stroke:#2C3E50;stroke-width:5;stroke-miterlimit:10;}
	.st10{fill:#2C3E50;}
	.st11{fill:url(#SVGID_8_);stroke:#1A1A1A;stroke-miterlimit:10;}
	.st12{fill:url(#SVGID_9_);stroke:#2C3E50;stroke-width:12;stroke-miterlimit:10;}
	.st13{fill:#169089;stroke:#2C3E50;stroke-width:12;stroke-miterlimit:10;}
	.st14{fill:url(#SVGID_10_);stroke:#2C3E50;stroke-width:12;stroke-miterlimit:10;}
	.st15{fill:url(#SVGID_11_);stroke:#2C3E50;stroke-width:8.5;stroke-miterlimit:10;}
	.st16{fill:url(#SVGID_12_);stroke:#2C3E50;stroke-width:8.5;stroke-miterlimit:10;}
	.st17{fill:none;}
	.st18{fill:url(#SVGID_14_);stroke:#2C3E50;stroke-width:12;stroke-miterlimit:10;}
	.st19{fill:url(#SVGID_15_);stroke:#2C3E50;stroke-width:5;stroke-miterlimit:10;}
	.st20{fill:#169089;}
</style>
<g>
	<g>
		<g>
			
				<linearGradient id="SVGID_1_" gradientUnits="userSpaceOnUse" x1="367.3565" y1="646.9592" x2="571.1279" y2="-140.7757" gradientTransform="matrix(0.9756 0.2195 -0.2195 0.9756 96.0294 137.7898)">
				<stop  offset="0.1349" style="stop-color:#2C3E50"/>
				<stop  offset="0.1926" style="stop-color:#2B4352"/>
				<stop  offset="0.257" style="stop-color:#28505A"/>
				<stop  offset="0.3247" style="stop-color:#236666"/>
				<stop  offset="0.3942" style="stop-color:#1C8577"/>
				<stop  offset="0.4433" style="stop-color:#16A085"/>
				<stop  offset="0.471" style="stop-color:#17A78B"/>
				<stop  offset="0.5386" style="stop-color:#19B395"/>
				<stop  offset="0.6334" style="stop-color:#1ABA9A"/>
				<stop  offset="0.8936" style="stop-color:#1ABC9C"/>
			</linearGradient>
			<path style="fill:url(#SVGID_1_);stroke:#2C3E50;stroke-width:8.5;stroke-miterlimit:10;" d="M687.07,326.77
				c-62.33-79.99-164.22-119.65-262.19-92.41C317.4,264.24,247.71,365.39,246.7,478.26c-0.09,11.5,0.5,23.09,1.88,34.76
				c1.7,14.73,4.58,29.55,8.72,44.34c39.65,141.61,179,226.64,311.2,189.89c132.21-36.76,207.25-181.39,167.59-323l-0.12-0.43
				C725.67,387.33,708.77,354.6,687.07,326.77z M481.6,333.76c50.93-14.16,103.68,3.2,139.82,40.78c4.16,4.33,3.79,11.27-0.85,15.08
				c-31.09,25.55-67.33,47.83-107.8,65.08c-40.79,17.42-82.11,28.13-122,32.65c-6.06,0.69-11.41-4.03-11.47-10.11
				C378.64,410.99,418.91,351.19,481.6,333.76z M564.38,629.38c-58.94,16.39-120.36-9.45-155.61-59.99
				c-4.73-6.79,0.11-16.09,8.41-16.12c39.66-0.16,81.51-5.82,123.71-17.55c40.14-11.16,77.13-26.86,109.9-45.83
				c7.16-4.15,16.07,1.39,15.45,9.63C661.7,560.22,622.75,613.15,564.38,629.38z"/>
			<path class="st2" d="M407.4,566.94c-8.06-13.19-17.2-30.06-21.49-45.4c-3.76-13.43-5.81-26.94-6.25-40.44
				c-0.01-0.25-0.02-0.54-0.03-0.79"/>
			<path class="st2" d="M648.92,490.91c32.05-19.6,63.19-43.51,87.04-67.09"/>
			<path class="st2" d="M379.8,488.44c-0.05-0.03-0.08-0.02-0.12-0.01"/>
			<path class="st2" d="M712.16,445.7c0,0,16.99-15.3,27.45-9.74"/>
			<path class="st2" d="M717.24,440.87c0,0,14.81-12.54,15.6-27"/>
			<path class="st2" d="M381.61,501.26c0,0,1.48-12.25,9.16-13.91"/>
			<path class="st2" d="M396.19,548.36c0,0,7.45,6.39,23.93,4.63"/>
			<path class="st2" d="M666.59,497.41c0,0,3.08-19.37,13.18-25.61"/>
		</g>
	</g>
	<path id="SVGID_x5F_2_x5F_" class="st17" d="M598.46,197.09c171.67,55.8,266.75,236.65,212.38,403.94
		c-54.38,167.29-237.62,257.67-409.29,201.87S134.79,566.26,189.17,398.97S426.79,141.29,598.46,197.09z"/>
	<text>	<textPath  xlink:href="#SVGID_x5F_2_x5F_" startOffset="105.4179%">
<tspan  class="st10" style="font-family:'HelveticaRounded-Bold'; font-size:52.054px;">Smart Solutions for Better Healthcare</tspan>	</textPath>
</text>
</g>
</svg>
