<?xml version="1.0" encoding="utf-8"?>
<!-- Generator: Adobe Illustrator 25.2.0, SVG Export Plug-In . SVG Version: 6.00 Build 0)  -->
<svg version="1.1" id="Layer_1" xmlns="http://www.w3.org/2000/svg" xmlns:xlink="http://www.w3.org/1999/xlink" x="0px" y="0px"
	 viewBox="0 0 2048.15 1562.15" style="enable-background:new 0 0 2048.15 1562.15;" xml:space="preserve">
<style type="text/css">
	.st0{fill:url(#SVGID_1_);stroke:#1A1A1A;stroke-miterlimit:10;}
	.st1{fill:url(#SVGID_2_);stroke:#2C3E50;stroke-width:8.5;stroke-miterlimit:10;}
	.st2{fill:#169089;stroke:#2C3E50;stroke-width:8.5;stroke-miterlimit:10;}
	.st3{fill:url(#SVGID_3_);}
	.st4{fill:url(#SVGID_4_);stroke:#2C3E50;stroke-width:8.5;stroke-miterlimit:10;}
	.st5{fill:url(#SVGID_5_);stroke:#1A1A1A;stroke-miterlimit:10;}
	.st6{fill:url(#SVGID_6_);stroke:#2C3E50;stroke-width:5;stroke-miterlimit:10;}
	.st7{fill:#169089;stroke:#2C3E50;stroke-width:5;stroke-miterlimit:10;}
	.st8{fill:#FFFFFF;}
	.st9{fill:url(#SVGID_7_);stroke:#2C3E50;stroke-width:5;stroke-miterlimit:10;}
	.st10{fill:#2C3E50;}
	.st11{fill:url(#SVGID_8_);stroke:#1A1A1A;stroke-miterlimit:10;}
	.st12{fill:url(#SVGID_9_);stroke:#2C3E50;stroke-width:12;stroke-miterlimit:10;}
	.st13{fill:#169089;stroke:#2C3E50;stroke-width:12;stroke-miterlimit:10;}
	.st14{fill:url(#SVGID_10_);stroke:#2C3E50;stroke-width:12;stroke-miterlimit:10;}
	.st15{fill:url(#SVGID_11_);stroke:#2C3E50;stroke-width:8.5;stroke-miterlimit:10;}
	.st16{fill:url(#SVGID_12_);stroke:#2C3E50;stroke-width:8.5;stroke-miterlimit:10;}
	.st17{fill:url(#SVGID_13_);stroke:#2C3E50;stroke-width:12;stroke-miterlimit:10;}
	.st18{fill:url(#SVGID_14_);stroke:#2C3E50;stroke-width:5;stroke-miterlimit:10;}
	.st19{fill:#169089;}
</style>
<g>
	<g>
		
			<linearGradient id="SVGID_1_" gradientUnits="userSpaceOnUse" x1="-714.2032" y1="1979.9957" x2="-556.364" y2="1369.8243" gradientTransform="matrix(0.8807 -0.4736 0.4736 0.8807 56.5975 -1007.5143)">
			<stop  offset="0.1349" style="stop-color:#2C3E50"/>
			<stop  offset="0.1926" style="stop-color:#2B4352"/>
			<stop  offset="0.257" style="stop-color:#28505A"/>
			<stop  offset="0.3247" style="stop-color:#236666"/>
			<stop  offset="0.3942" style="stop-color:#1C8577"/>
			<stop  offset="0.4433" style="stop-color:#16A085"/>
			<stop  offset="0.471" style="stop-color:#17A78B"/>
			<stop  offset="0.5386" style="stop-color:#19B395"/>
			<stop  offset="0.6334" style="stop-color:#1ABA9A"/>
			<stop  offset="0.8936" style="stop-color:#1ABC9C"/>
		</linearGradient>
		<path style="fill:url(#SVGID_1_);stroke:#2C3E50;stroke-width:5;stroke-miterlimit:10;" d="M403.43,619.1
			C344.52,570.58,263.3,558.22,196,594.41c-73.82,39.7-108.17,125.57-90.25,208.73c1.84,8.47,4.18,16.89,7.12,25.25
			c3.68,10.55,8.24,20.97,13.72,31.16c52.48,97.58,168.66,137.11,259.46,88.28s121.88-167.56,69.4-265.14l-0.16-0.29
			C441.73,657.26,423.93,635.99,403.43,619.1z M254,658.14c34.98-18.81,76.51-14.75,109.21,6.92c3.76,2.49,4.64,7.66,1.87,11.23
			c-18.56,23.92-41.43,46.28-68.24,65.63c-27.01,19.54-55.52,34.23-84.01,44.13c-4.33,1.51-9.03-1.08-10.08-5.54
			C191.32,731.91,210.94,681.3,254,658.14z M363.55,861.84c-40.48,21.77-89.77,12.91-123.96-18.44c-4.59-4.21-2.58-11.85,3.5-13.24
			c29.04-6.66,58.77-17.73,87.76-33.32c27.57-14.83,52.08-32.47,72.96-51.83c4.56-4.23,12.01-1.63,12.92,4.53
			C423.44,794.94,403.65,840.28,363.55,861.84z"/>
		<path class="st7" d="M238.19,841.83c-8.09-8.37-17.57-19.26-23.26-29.83c-4.98-9.26-8.71-18.85-11.27-28.71
			c-0.05-0.18-0.11-0.4-0.15-0.58"/>
		<path class="st7" d="M402.61,746.08c20.25-19.7,39.11-42.42,52.69-63.69"/>
		<path class="st7" d="M204.98,788.66c-0.04-0.01-0.06,0-0.09,0.02"/>
		<path class="st7" d="M441.48,702.41c0,0,9.92-14.05,18.51-11.69"/>
		<path class="st7" d="M444.41,698.02c0,0,8.78-11.67,6.97-22.43"/>
		<path class="st7" d="M208.43,797.79c0,0-0.94-9.25,4.41-11.74"/>
		<path class="st7" d="M226.9,830.02c0,0,6.52,3.47,18.3-0.54"/>
		<path class="st7" d="M416.63,747.94c0,0-0.94-14.75,5.42-21"/>
	</g>
	<path class="st10" d="M695.61,905.66c-22.69,60.32-47.04,83.01-97.4,83.01c-26.9,0-47.74-6.05-67.12-16.24
		c-4.29-2.25-6.1-7.43-4.07-11.82l20.7-44.64c2.12-4.57,7.55-6.47,12.11-4.32c9.25,4.37,19.37,7.3,27.87,7.3
		c13.09,0,20.68-3.66,27.36-15.57c1.3-2.32,1.45-5.13,0.48-7.61L505.61,614.14c-2.31-5.91,2.05-12.3,8.4-12.3h69.4
		c3.88,0,7.32,2.48,8.55,6.16l56.72,169.7c2.76,8.27,14.48,8.2,17.14-0.11l54.33-169.49c1.2-3.73,4.67-6.27,8.59-6.27h67.84
		c6.3,0,10.66,6.29,8.45,12.19L695.61,905.66z"/>
	<g>
		<path class="st10" d="M966.21,913.5c-91.86,0-159.93-68.07-159.93-153.29v-1.11c0-85.22,68.62-154.4,161.04-154.4
			c91.86,0,159.93,68.07,159.93,153.29v1.11C1127.25,844.32,1058.63,913.5,966.21,913.5z M1044.24,759.1
			c0-43.72-31.54-81.9-78.03-81.9c-48.14,0-76.92,37.08-76.92,80.8v1.11c0,43.72,31.54,81.9,78.03,81.9
			c48.15,0,76.92-37.08,76.92-80.8V759.1z"/>
		<path class="st10" d="M1544.81,906.85c-4.97,0-9-4.03-9-9V741.39c0-39.85-17.71-60.32-49.25-60.32
			c-31.54,0-50.91,20.48-50.91,60.32v156.46c0,4.97-4.03,9-9,9h-66.11c-4.97,0-9-4.03-9-9V741.39c0-39.85-17.71-60.32-49.25-60.32
			c-31.54,0-50.91,20.48-50.91,60.32v156.46c0,4.97-4.03,9-9,9h-66.11c-4.97,0-9-4.03-9-9V619.23c0-4.97,4.03-9,9-9h66.11
			c4.97,0,9,4.03,9,9v9.22c0,8.04,9.66,11.97,15.39,6.33c17.39-17.11,39.81-30.09,72.05-30.09c34.31,0,61.24,13.46,77.71,37.29
			c3.19,4.61,9.83,5.11,13.74,1.1c24.36-24.92,53.11-38.39,89.51-38.39c62.53,0,100.16,37.63,100.16,109.02v184.13
			c0,4.97-4.03,9-9,9H1544.81z"/>
		<path class="st10" d="M1871.8,906.85c-4.88,0-8.84-3.96-8.84-8.84V741.39c0-39.85-18.82-60.32-50.91-60.32
			c-32.1,0-52.57,20.48-52.57,60.32v156.62c0,4.88-3.96,8.84-8.84,8.84h-66.43c-4.88,0-8.84-3.96-8.84-8.84V619.07
			c0-4.88,3.96-8.84,8.84-8.84h66.43c4.88,0,8.84,3.96,8.84,8.84v9.69c0,7.91,9.53,11.77,15.14,6.19
			c17.26-17.19,39.4-30.26,71.75-30.26c63.64,0,100.72,42.06,100.72,110.13v183.19c0,4.88-3.96,8.84-8.84,8.84H1871.8z"/>
	</g>
</g>
</svg>
