<svg width="121" height="166" viewBox="0 0 121 166" fill="none" xmlns="http://www.w3.org/2000/svg">
<path d="M3 159V7C3 4.79086 4.79086 3 7 3H97.3093C98.5531 3 99.7262 3.57863 100.483 4.56558L117.374 26.587C117.91 27.2855 118.2 28.1411 118.2 29.0214V159C118.2 161.209 116.409 163 114.2 163H7C4.79086 163 3 161.209 3 159Z" stroke="#1E8282" stroke-width="5"/>
<path d="M91.0302 28.2978L90.8727 6.46716C90.8593 4.61171 92.4523 3.15116 94.2996 3.32518C95.163 3.40651 95.954 3.84199 96.4844 4.52797L115.745 29.4368C115.929 29.6749 116.052 29.9547 116.103 30.2514C116.295 31.3785 115.422 32.4058 114.279 32.3981L95.0033 32.2688C92.8159 32.2542 91.046 30.4851 91.0302 28.2978Z" fill="#1E8282" stroke="#1E8282" stroke-width="5"/>
<rect x="18" y="41" width="42" height="4" rx="2" fill="#1E8282" fill-opacity="0.15"/>
<rect x="18" y="55" width="85" height="4" rx="2" fill="#1E8282" fill-opacity="0.15"/>
<rect x="18" y="83" width="85" height="4" rx="2" fill="#1E8282" fill-opacity="0.15"/>
<rect x="18" y="69" width="85" height="4" rx="2" fill="#1E8282" fill-opacity="0.15"/>
<rect x="18" y="97" width="85" height="4" rx="2" fill="#1E8282" fill-opacity="0.15"/>
<rect x="18" y="111" width="85" height="4" rx="2" fill="#1E8282" fill-opacity="0.15"/>
</svg>
